<?xml version="1.0" encoding="UTF-8"?><svg id="Livello_1" xmlns="http://www.w3.org/2000/svg" viewBox="0 0 215.28 214.81"><defs><style>.cls-1{fill:#fff;}</style></defs><path class="cls-1" d="M99.24,143.67s-.54,15.77,16.96,15.77h26.72c9,0,17.3-5.01,17.3-15.77V71.96c0-9.9-4.99-16.6-17.3-16.6-14.67,0-43.31-.03-49.72,.02-3.24,0-6.86,1.34-6.82,7.04,0,.07-.04,9.47-.04,9.47l48.48,.07c3.86,0,8.1,3.07,8.1,8.09,0,10.52-.04,46.29-.04,55.55,0,3.59,.87,8.07-8.06,8.07h-8.97c-10.46,0-9.66-4.48-9.66-8.07v-17.84c0-1.78,.09-3.28,0-5.05-.67-13.22-8.88-21.7-29.86-21.7-22.41,0-31.41,11.27-31.41,21.7,0,1.77,0,3.42,0,5.2l-.11,36.24c0,2.94,2.35,5.26,5.29,5.3h12.87s0-41.68,0-41.68c0-5.24,3.11-9.66,13.35-9.66,8.08,0,12.89,4.42,12.79,9.66l.1,25.91Z"/></svg>